<svg width="270" height="259" viewBox="0 0 270 259" fill="none" xmlns="http://www.w3.org/2000/svg">
<path d="M266.243 180.189C270.001 164.428 267.014 153.689 263.514 146.689C255.912 131.484 246.514 121.378 246.514 110.689C246.514 96.6889 259.014 72.6889 255.014 54.6889C248.273 24.3554 233.514 21.6889 217.514 18.1889C191.72 12.5466 172.205 22.2922 157.481 13.964C137.68 1.15143 107.678 -4.84795 87.481 13.964C74.1208 26.4081 70.9814 48.9718 51.9813 54.5136C39.9814 58.0136 23.9444 65.9909 14.4809 81.1889C-4.1053 111.037 -2.20549 149.405 22.0129 165.689C51.0136 185.189 45.5136 185.189 47.0129 211.189C48.2218 232.154 56.5129 238.689 64.0129 243.689C75.4317 251.301 112.546 262.54 131.762 251.629C152.514 239.846 151.014 233.514 177.981 233.514C204.948 233.514 214.343 232.736 229.481 225.689C241.724 219.99 259.36 209.06 266.243 180.189Z" fill="#00DCEA" stroke="black" stroke-width="4" stroke-linecap="round"/>
</svg>
