<svg width="24" height="24" viewBox="0 0 24 24" fill="none" xmlns="http://www.w3.org/2000/svg">
<g id="Frame 43">
<path id="Vector" d="M1.00001 11.9988L1.00001 11.9975C1.00057 9.58584 1.79364 7.24121 3.25719 5.32444C4.72074 3.40766 6.77365 2.02497 9.09997 1.38917C11.4263 0.753366 13.8971 0.899684 16.1321 1.80561C18.3671 2.71153 20.2425 4.32685 21.4696 6.40296C22.6967 8.47907 23.2075 10.9009 22.9234 13.2958C22.6393 15.6906 21.5761 17.9257 19.8973 19.6571C18.2186 21.3886 16.0173 22.5203 13.6324 22.8782C11.2475 23.2361 8.81102 22.8003 6.69801 21.6379L6.32832 21.4345L5.92469 21.5574L1.25909 22.9782L1.25902 22.9782C1.22433 22.9888 1.18743 22.9897 1.15225 22.981C1.11708 22.9722 1.08495 22.954 1.05931 22.9283C1.03368 22.9027 1.01549 22.8706 1.0067 22.8354C0.997912 22.8002 0.99885 22.7633 1.00942 22.7286L1.00956 22.7281L2.43036 18.0554L2.55284 17.6525L2.35032 17.2834C1.46174 15.6639 0.997236 13.846 1.00001 11.9988ZM6.20001 10.7973C6.20001 11.3807 6.43179 11.9403 6.84437 12.3529C7.25695 12.7655 7.81653 12.9972 8.40001 12.9972H15.6C16.1835 12.9972 16.7431 12.7655 17.1556 12.3529C17.5682 11.9403 17.8 11.3807 17.8 10.7973C17.8 10.2138 17.5682 9.6542 17.1556 9.24161C16.7431 8.82903 16.1835 8.59725 15.6 8.59725H8.40001C7.81653 8.59725 7.25695 8.82903 6.84437 9.24162C6.43179 9.6542 6.20001 10.2138 6.20001 10.7973ZM8.40001 13.3972C7.81653 13.3972 7.25695 13.629 6.84437 14.0416C6.43179 14.4542 6.20001 15.0138 6.20001 15.5972C6.20001 16.1807 6.43179 16.7403 6.84437 17.1529C7.25695 17.5655 7.81653 17.7972 8.40001 17.7972H13.2C13.7835 17.7972 14.3431 17.5655 14.7556 17.1529C15.1682 16.7403 15.4 16.1807 15.4 15.5972C15.4 15.0138 15.1682 14.4542 14.7556 14.0416C14.3431 13.629 13.7835 13.3972 13.2 13.3972H8.40001Z" fill="#FFD200" stroke="#E99934" stroke-width="2"/>
</g>
</svg>
