<svg width="36" height="36" viewBox="0 0 36 36" fill="none" xmlns="http://www.w3.org/2000/svg">
<g clip-path="url(#clip0_109_465)">
<rect x="2" y="2" width="32" height="32" rx="16" fill="white"/>
<path d="M34 18C34 9.1635 26.8365 2 18 2C9.1635 2 2 9.1635 2 18C2 25.986 7.851 32.6054 15.5 33.8056V22.625H11.4375V18H15.5V14.475C15.5 10.465 17.8888 8.25 21.5435 8.25C23.294 8.25 25.125 8.5625 25.125 8.5625V12.5H23.1075C21.1199 12.5 20.5 13.7334 20.5 14.9987V18H24.9375L24.2281 22.625H20.5V33.8056C28.149 32.6054 34 25.9861 34 18Z" fill="#1877F2"/>
<path d="M24.2281 22.625L24.9375 18H20.5V14.9987C20.5 13.7332 21.1199 12.5 23.1075 12.5H25.125V8.5625C25.125 8.5625 23.294 8.25 21.5434 8.25C17.8888 8.25 15.5 10.465 15.5 14.475V18H11.4375V22.625H15.5V33.8056C16.327 33.9352 17.1629 34.0002 18 34C18.8371 34.0002 19.673 33.9353 20.5 33.8056V22.625H24.2281Z" fill="white"/>
</g>
<rect x="1" y="1" width="34" height="34" rx="17" stroke="white" stroke-width="2"/>
<defs>
<clipPath id="clip0_109_465">
<rect x="2" y="2" width="32" height="32" rx="16" fill="white"/>
</clipPath>
</defs>
</svg>
