<svg width="52" height="52" viewBox="0 0 52 52" fill="none" xmlns="http://www.w3.org/2000/svg">
<g id="pepicons-pop:leave-circle-filled">
<g clip-path="url(#clip0_1664_543)">
<g id="Group">
<g id="Mask group">
<mask id="mask0_1664_543" style="mask-type:luminance" maskUnits="userSpaceOnUse" x="2" y="2" width="48" height="48">
<g id="Group_2">
<path id="Vector" d="M2 2H50V50H2V2Z" fill="white"/>
<g id="Group_3">
<path id="Vector_2" fill-rule="evenodd" clip-rule="evenodd" d="M35.281 20.8898C35.657 20.5766 36.1421 20.4256 36.6296 20.4699C37.117 20.5142 37.5669 20.7502 37.8803 21.1262L41.7259 25.7415C42.0254 26.1191 42.1655 26.5988 42.1161 27.0782C42.0667 27.5577 41.8318 27.9987 41.4615 28.3073C41.0913 28.6158 40.6151 28.7674 40.1346 28.7295C39.6541 28.6916 39.2075 28.4674 38.8902 28.1046L35.0428 23.4892C34.7296 23.1131 34.5785 22.6281 34.6228 22.1406C34.6671 21.6532 34.9032 21.2033 35.2791 20.8898" fill="black"/>
<path id="Vector_3" fill-rule="evenodd" clip-rule="evenodd" d="M35.2812 32.9563C34.905 32.6431 34.6686 32.1933 34.6239 31.7059C34.5793 31.2184 34.73 30.7332 35.043 30.3569L38.8904 25.7415C39.0434 25.5487 39.2334 25.3884 39.4493 25.2701C39.6652 25.1517 39.9025 25.0778 40.1474 25.0526C40.3923 25.0273 40.6397 25.0513 40.8752 25.1232C41.1107 25.195 41.3294 25.3132 41.5185 25.4707C41.7076 25.6283 41.8633 25.8222 41.9764 26.0408C42.0895 26.2595 42.1577 26.4985 42.1771 26.7439C42.1964 26.9893 42.1665 27.2361 42.089 27.4698C42.0116 27.7035 41.8882 27.9193 41.7261 28.1046L37.8806 32.72C37.5671 33.0959 37.1172 33.3319 36.6298 33.3762C36.1424 33.4206 35.6573 33.2695 35.2812 32.9563Z" fill="black"/>
<path id="Vector_4" fill-rule="evenodd" clip-rule="evenodd" d="M39.8464 26.923C39.8464 27.4127 39.6519 27.8822 39.3057 28.2285C38.9594 28.5747 38.4899 28.7692 38.0002 28.7692H26.0002C25.5106 28.7692 25.041 28.5747 24.6948 28.2285C24.3486 27.8822 24.1541 27.4127 24.1541 26.923C24.1541 26.4334 24.3486 25.9638 24.6948 25.6176C25.041 25.2714 25.5106 25.0769 26.0002 25.0769H38.0002C38.4899 25.0769 38.9594 25.2714 39.3057 25.6176C39.6519 25.9638 39.8464 26.4334 39.8464 26.923ZM13.0771 14C13.0771 13.5103 13.2717 13.0408 13.6179 12.6945C13.9641 12.3483 14.4337 12.1538 14.9233 12.1538H31.5387C32.0283 12.1538 32.4979 12.3483 32.8441 12.6945C33.1903 13.0408 33.3848 13.5103 33.3848 14C33.3848 14.4896 33.1903 14.9592 32.8441 15.3054C32.4979 15.6516 32.0283 15.8461 31.5387 15.8461H14.9233C14.4337 15.8461 13.9641 15.6516 13.6179 15.3054C13.2717 14.9592 13.0771 14.4896 13.0771 14ZM13.0771 39.8461C13.0771 39.3565 13.2717 38.8869 13.6179 38.5407C13.9641 38.1945 14.4337 38 14.9233 38H31.5387C32.0283 38 32.4979 38.1945 32.8441 38.5407C33.1903 38.8869 33.3848 39.3565 33.3848 39.8461C33.3848 40.3357 33.1903 40.8053 32.8441 41.1515C32.4979 41.4978 32.0283 41.6923 31.5387 41.6923H14.9233C14.4337 41.6923 13.9641 41.4978 13.6179 41.1515C13.2717 40.8053 13.0771 40.3357 13.0771 39.8461Z" fill="black"/>
<path id="Vector_5" fill-rule="evenodd" clip-rule="evenodd" d="M31.5387 12.1538C32.0283 12.1538 32.4979 12.3483 32.8441 12.6945C33.1903 13.0408 33.3848 13.5103 33.3848 14V21.3846C33.3848 21.8742 33.1903 22.3438 32.8441 22.69C32.4979 23.0362 32.0283 23.2307 31.5387 23.2307C31.0491 23.2307 30.5795 23.0362 30.2333 22.69C29.887 22.3438 29.6925 21.8742 29.6925 21.3846V14C29.6925 13.5103 29.887 13.0408 30.2333 12.6945C30.5795 12.3483 31.0491 12.1538 31.5387 12.1538ZM31.5387 30.6153C32.0283 30.6153 32.4979 30.8099 32.8441 31.1561C33.1903 31.5023 33.3848 31.9719 33.3848 32.4615V39.8461C33.3848 40.3357 33.1903 40.8053 32.8441 41.1515C32.4979 41.4978 32.0283 41.6923 31.5387 41.6923C31.0491 41.6923 30.5795 41.4978 30.2333 41.1515C29.887 40.8053 29.6925 40.3357 29.6925 39.8461V32.4615C29.6925 31.9719 29.887 31.5023 30.2333 31.1561C30.5795 30.8099 31.0491 30.6153 31.5387 30.6153ZM14.9233 12.1538C15.4129 12.1538 15.8825 12.3483 16.2287 12.6945C16.575 13.0408 16.7695 13.5103 16.7695 14V39.8461C16.7695 40.3357 16.575 40.8053 16.2287 41.1515C15.8825 41.4978 15.4129 41.6923 14.9233 41.6923C14.4337 41.6923 13.9641 41.4978 13.6179 41.1515C13.2717 40.8053 13.0771 40.3357 13.0771 39.8461V14C13.0771 13.5103 13.2717 13.0408 13.6179 12.6945C13.9641 12.3483 14.4337 12.1538 14.9233 12.1538Z" fill="black"/>
</g>
</g>
</mask>
<g mask="url(#mask0_1664_543)">
<path id="Vector_6" d="M26 50C39.2548 50 50 39.2548 50 26C50 12.7452 39.2548 2 26 2C12.7452 2 2 12.7452 2 26C2 39.2548 12.7452 50 26 50Z" fill="#1FCC7B"/>
</g>
</g>
</g>
</g>
<rect x="1" y="1" width="50" height="50" rx="25" stroke="black" stroke-width="2"/>
</g>
<defs>
<clipPath id="clip0_1664_543">
<rect x="2" y="2" width="48" height="48" rx="24" fill="white"/>
</clipPath>
</defs>
</svg>
