<svg width="270" height="265" viewBox="0 0 270 265" fill="none" xmlns="http://www.w3.org/2000/svg">
<path d="M70 260.707C86.1806 264.38 109.814 260.421 117 257C129.5 251.05 136.527 244.5 147.5 244.5C161.873 244.5 193.5 258.5 214.5 258.5C246.33 258.5 255.5 235.5 255.5 217.5C255.5 191.632 242.976 172.367 251.526 157.976C264.679 138.622 276.505 105.914 259.72 84.1796C246.887 67.5638 217.239 72.5205 211.55 53.9492C207.957 42.2201 197.299 21.5887 181.696 12.3388C151.053 -5.82793 114.133 0.985459 97.4149 24.6572C77.3958 53.0034 82.1141 52.4837 55.4219 53.9492C33.8986 55.1308 14.3201 69.5181 9.18694 76.8488C1.3717 88.0099 -2.0146 113.146 9.18705 131.929C21.2841 152.212 35.9161 152.143 35.9161 178.502C35.9161 204.86 25.5 212.5 30.2887 230.794C33.6619 243.68 40.3599 253.979 70 260.707Z" fill="#00DCEA" stroke="black" stroke-width="4" stroke-linecap="round"/>
</svg>
