<svg width="296" height="236" viewBox="0 0 296 236" fill="none" xmlns="http://www.w3.org/2000/svg">
<path d="M27.1307 65.4151C24.7245 80.9312 27.1307 106.364 27.1307 110.086C27.1307 123.733 16.6182 128.75 10.4122 137.991C1.78401 150.839 -0.97833 160 5.784 176.5C18.284 207 48.9987 219.874 68.784 210.5C93.2688 196.497 114.518 216.436 129.284 224.5C149.142 236.906 174.018 236.368 197.284 221.5C213.259 211.291 215.511 187.5 238.784 187.5C255.227 187.5 273.293 185.216 282.784 170.5C301.424 141.598 293.784 86.5 273.22 67.5C260.616 55.8548 240.5 54.5001 232.5 35C226.068 19.3209 214.702 7.71575 199.5 4.50002C173.5 -0.999945 161.399 3.39972 142.127 13.965C129.429 20.9263 118.396 33.3121 103.629 25.1344C85.4885 17.0382 69.1949 15.1772 54.0129 22.0009C40.6809 28.8243 29.6935 48.8887 27.1307 65.4151Z" fill="#FFD200" stroke="black" stroke-width="4" stroke-linecap="round"/>
</svg>
