<svg width="32" height="32" viewBox="0 0 32 32" fill="none" xmlns="http://www.w3.org/2000/svg">
<path d="M5.90837 5.82351L5.90842 5.82356C6.60439 5.1454 7.24794 4.7654 7.96379 4.72874C8.65798 4.6932 9.31302 4.99022 9.9991 5.37561C10.5464 5.68304 11.2533 6.23897 11.8901 6.77813C12.0663 6.92737 12.3562 6.80778 12.3756 6.57714C12.4447 5.75743 12.5507 4.8823 12.7178 4.28678C12.9304 3.52912 13.1836 2.85603 13.6997 2.39045C14.2318 1.91038 14.9556 1.72422 15.9271 1.71163L15.9282 1.71161L15.949 1.7114L15.9503 1.71138L5.90837 5.82351ZM5.90837 5.82351L5.90269 5.82923L5.8683 5.86384M5.90837 5.82351L5.8683 5.86384M5.8683 5.86384C5.85853 5.87353 5.84962 5.88274 5.84416 5.88839L5.84414 5.8884L5.82867 5.90421L5.8279 5.905C5.14981 6.6009 4.76967 7.2443 4.73286 7.96003C4.69716 8.65416 4.99409 9.30913 5.37948 9.99522C5.6903 10.5485 6.25533 11.2653 6.80069 11.9082C6.95031 12.0846 6.83017 12.3747 6.59964 12.3936C5.75997 12.4626 4.85442 12.5699 4.24381 12.7413C3.48617 12.9539 2.81296 13.207 2.34723 13.723C1.86696 14.2551 1.68061 14.9789 1.66801 15.9506L1.66795 15.9505L1.66797 15.9586L1.66813 16.0074L5.8683 5.86384ZM16.0336 1.71094L15.9848 1.71109L30.3316 15.9738C30.3316 15.9733 30.3316 15.9729 30.3316 15.9724L30.3314 15.9517L30.3313 15.9506C30.3187 14.979 30.1326 14.2552 29.6525 13.7231C29.1869 13.207 28.5138 12.9539 27.7562 12.7413C27.1542 12.5723 26.266 12.4657 25.4376 12.3967C25.2073 12.3775 25.0872 12.0879 25.2365 11.9112C25.7694 11.2806 26.3164 10.5834 26.6205 10.0421C27.0059 9.356 27.3028 8.70104 27.2671 8.00691C27.2303 7.29118 26.8502 6.64778 26.1721 5.95187L26.1713 5.95108L26.1568 5.93625L26.1559 5.93532C26.1559 5.93529 26.1558 5.93526 26.1558 5.93523C26.1503 5.92957 26.1414 5.92036 26.1316 5.91065C26.131 5.91002 26.1304 5.90938 26.1297 5.90874L26.0973 5.87611L26.0974 5.87606L26.0916 5.87044C25.3956 5.19228 24.7521 4.81228 24.0362 4.77562C23.342 4.74007 22.687 5.0371 22.0009 5.42248C21.4466 5.73386 20.7281 6.30043 20.0842 6.84681C19.9078 6.99645 19.6177 6.87632 19.5988 6.64577C19.5298 5.80515 19.4225 4.89812 19.2509 4.28678C19.0383 3.52914 18.7852 2.85593 18.2692 2.3902C17.7371 1.90993 17.0133 1.72358 16.0416 1.71098L16.0416 1.71091L16.0336 1.71094ZM30.332 16.057L30.3319 16.0082L16.0489 30.3043L16.0664 30.304V30.3041L16.0729 30.304C17.0444 30.2914 17.7682 30.1052 18.3003 29.6252C18.8164 29.1596 19.0696 28.4865 19.2822 27.7288C19.4493 27.1333 19.5553 26.2582 19.6244 25.4385C19.6438 25.2078 19.9337 25.0883 20.1099 25.2375C20.7467 25.7767 21.4536 26.3326 22.0009 26.64C22.687 27.0254 23.342 27.3224 24.0362 27.2869C24.7521 27.2502 25.3956 26.8702 26.0916 26.1921L26.0916 26.1921L26.0973 26.1864L26.1331 26.1504L26.1336 26.1499L26.1455 26.1378L26.1456 26.1378L26.1493 26.134L26.1549 26.1282L26.1565 26.1265L26.1713 26.1114L26.1721 26.1106C26.8502 25.4147 27.2303 24.7713 27.2671 24.0556C27.3028 23.3615 27.0059 22.7065 26.6205 22.0204C26.3097 21.4671 25.7447 20.7503 25.1993 20.1074C25.0497 19.931 25.1698 19.6409 25.4004 19.622C26.24 19.553 27.1456 19.4457 27.7562 19.2744C28.5138 19.0617 29.187 18.8086 29.6528 18.2926C30.133 17.7605 30.3194 17.0367 30.332 16.0651L30.3321 16.0651L30.332 16.057ZM15.9664 30.3047L16.0152 30.3045L1.66841 16.0419C1.66842 16.0423 1.66842 16.0428 1.66843 16.0432L1.66865 16.064L1.66866 16.0651C1.68125 17.0366 1.86741 17.7604 2.34748 18.2925C2.81306 18.8086 3.48615 19.0617 4.24381 19.2744C4.84583 19.4433 5.734 19.5499 6.56236 19.6189C6.79265 19.6381 6.91284 19.9277 6.76352 20.1044C6.23055 20.735 5.68358 21.4322 5.37948 21.9735C4.99409 22.6596 4.69716 23.3146 4.73286 24.0087C4.76967 24.7244 5.14981 25.3678 5.82789 26.0638L5.82868 26.0646L5.84321 26.0794C5.8435 26.0797 5.8438 26.08 5.8441 26.0803C5.84955 26.0859 5.85847 26.0952 5.86826 26.1049C5.86892 26.1055 5.86958 26.1062 5.87025 26.1068L5.9027 26.1395L5.90265 26.1396L5.90842 26.1452C6.60439 26.8233 7.24794 27.2033 7.96379 27.24C8.65798 27.2756 9.31302 26.9785 9.9991 26.5931C10.5534 26.2818 11.2719 25.7152 11.9158 25.1688C12.0922 25.0192 12.3823 25.1393 12.4012 25.3699C12.4702 26.2105 12.5775 27.1175 12.7491 27.7288C12.9617 28.4865 13.2148 29.1597 13.7308 29.6254C14.2629 30.1057 14.9867 30.292 15.9584 30.3046L15.9584 30.3047L15.9664 30.3047ZM20.9023 16.0078C20.9023 18.7175 18.7057 20.9141 15.9961 20.9141C13.2864 20.9141 11.0898 18.7175 11.0898 16.0078C11.0898 13.2982 13.2864 11.1016 15.9961 11.1016C18.7057 11.1016 20.9023 13.2982 20.9023 16.0078Z" fill="#FFD200" stroke="#E99934"/>
<path d="M6.32796 6.32342L6.32696 6.32442C6.32191 6.3294 6.31674 6.33474 6.31019 6.34151L6.30963 6.34208L6.29343 6.35862C5.66203 7.00662 5.407 7.50731 5.382 7.99342C5.35666 8.48602 5.56456 8.99748 5.9462 9.67688C6.22331 10.1702 6.75121 10.8451 7.29637 11.4878C7.78825 12.0676 7.41067 12.9792 6.65286 13.0415C5.81351 13.1104 4.96384 13.2143 4.41944 13.3671C3.66916 13.5776 3.16032 13.7923 2.82975 14.1585C2.50369 14.5198 2.32984 15.0539 2.31797 15.9578L2.31813 16.0073L2.31813 16.0088C2.31808 16.0159 2.31819 16.0233 2.31835 16.0327L2.31836 16.0335L2.31861 16.0566C2.33033 16.9613 2.50405 17.4957 2.8301 17.8571C3.1605 18.2233 3.66916 18.438 4.41944 18.6485C4.95582 18.7991 5.78872 18.9022 6.61633 18.9712C7.37314 19.0342 7.75013 19.944 7.25997 20.524C6.7276 21.1539 6.21704 21.8097 5.9462 22.2919C5.56456 22.9713 5.35666 23.4827 5.382 23.9753C5.407 24.4614 5.66199 24.9621 6.2933 25.61C6.29335 25.61 6.29339 25.6101 6.29343 25.6101L6.30961 25.6267L6.31018 25.6272C6.31674 25.634 6.3219 25.6393 6.32696 25.6443L6.32797 25.6453L6.36204 25.6797C6.36233 25.6799 6.36261 25.6802 6.3629 25.6805C7.01045 26.3113 7.51103 26.566 7.99704 26.5909C8.48976 26.6161 9.00135 26.4081 9.68076 26.0264C10.175 25.7488 10.8515 25.2194 11.4952 24.6732C12.0751 24.1812 12.9868 24.5588 13.049 25.3167C13.118 26.157 13.2219 27.0081 13.3749 27.5532C13.5854 28.3035 13.8001 28.8123 14.1664 29.1429C14.5276 29.469 15.0617 29.6428 15.9656 29.6547L16.0152 29.6545L16.0166 29.6545C16.0276 29.6546 16.0323 29.6545 16.0371 29.6544L6.32796 6.32342ZM6.32796 6.32342L6.3629 6.28826C7.01046 5.65749 7.51103 5.40278 7.99704 5.37789C8.48976 5.35266 9.00135 5.56068 9.68076 5.94232C10.1685 6.21629 10.8338 6.73544 11.47 7.27419C12.0497 7.76496 12.9596 7.38834 13.0233 6.6317C13.0923 5.81305 13.1948 4.99273 13.3436 4.4624C13.5542 3.71213 13.7688 3.20347 14.1351 2.87307C14.4965 2.54701 15.0309 2.3733 15.9355 2.36157L15.9587 2.36133L15.9595 2.36131C15.9689 2.36116 15.9763 2.36105 15.9834 2.3611L15.9848 2.3611L16.0344 2.36094C16.9383 2.37281 17.4724 2.54666 17.8336 2.87272C18.1999 3.20329 18.4146 3.71213 18.6251 4.4624C18.7781 5.00748 18.882 5.85859 18.951 6.69892C19.0132 7.45682 19.9249 7.83445 20.5047 7.34243C21.1485 6.79621 21.825 6.26684 22.3192 5.9892C22.9987 5.60755 23.5102 5.39954 24.003 5.42477C24.489 5.44966 24.9896 5.70437 25.6371 6.33515C25.6374 6.33542 25.6377 6.3357 25.638 6.33597L25.672 6.3703L25.6731 6.37131C25.6781 6.37629 25.6833 6.38161 25.6898 6.38839L25.6904 6.38897L25.7066 6.4055L6.32796 6.32342ZM25.6899 25.674L25.6904 25.6735L25.7066 25.657C26.338 25.009 26.593 24.5083 26.618 24.0222C26.6433 23.5296 26.4354 23.0181 26.0538 22.3387C25.7767 21.8454 25.2488 21.1705 24.7036 20.5279C24.2118 19.948 24.5893 19.0364 25.3471 18.9742C26.1865 18.9052 27.0362 18.8013 27.5806 18.6485C28.3308 18.438 28.8397 18.2233 29.1702 17.8571C29.4963 17.4958 29.6702 16.9618 29.682 16.0578L29.6819 16.0083L29.6819 16.0069C29.6819 15.9998 29.6818 15.9923 29.6817 15.9829L29.6816 15.9821L29.6814 15.959C29.6697 15.0543 29.496 14.5199 29.1699 14.1585C28.8395 13.7923 28.3308 13.5776 27.5806 13.3671C27.0442 13.2165 26.2113 13.1134 25.3837 13.0445C24.6269 12.9814 24.2499 12.0716 24.74 11.4917C25.2724 10.8618 25.783 10.2059 26.0538 9.72376C26.4354 9.04435 26.6433 8.53289 26.618 8.0403C26.593 7.55424 26.338 7.05361 25.7068 6.40574L25.6899 25.674ZM25.6899 25.674L25.6838 25.6803L25.6827 25.6815L25.672 25.6922L25.6719 25.6924L25.638 25.7265C25.6377 25.7268 25.6374 25.7271 25.6371 25.7274C24.9895 26.3581 24.489 26.6128 24.003 26.6377C23.5102 26.663 22.9987 26.4549 22.3192 26.0733C21.8315 25.7993 21.1662 25.2802 20.53 24.7414C19.9503 24.2507 19.0404 24.6273 18.9767 25.3839C18.9077 26.2026 18.8052 27.0229 18.6564 27.5532C18.4458 28.3035 18.2312 28.8122 17.8649 29.1426C17.5036 29.4685 16.9695 29.6422 16.0653 29.654L25.6899 25.674ZM15.9961 21.5641C19.0647 21.5641 21.5523 19.0764 21.5523 16.0078C21.5523 12.9392 19.0647 10.4516 15.9961 10.4516C12.9275 10.4516 10.4398 12.9392 10.4398 16.0078C10.4398 19.0764 12.9275 21.5641 15.9961 21.5641Z" stroke="#FFD200" stroke-width="0.3"/>
<path fill-rule="evenodd" clip-rule="evenodd" d="M16 23.9023C20.36 23.9023 23.8945 20.3678 23.8945 16.0078C23.8945 11.6478 20.36 8.11328 16 8.11328C11.64 8.11328 8.10547 11.6478 8.10547 16.0078C8.10547 20.3678 11.64 23.9023 16 23.9023ZM16 20.8594C18.6794 20.8594 20.8516 18.6873 20.8516 16.0078C20.8516 13.3284 18.6794 11.1562 16 11.1562C13.3206 11.1562 11.1484 13.3284 11.1484 16.0078C11.1484 18.6873 13.3206 20.8594 16 20.8594Z" fill="#E89539" fill-opacity="0.92"/>
<path fill-rule="evenodd" clip-rule="evenodd" d="M16 21.4766C19.0203 21.4766 21.4688 19.0281 21.4688 16.0078C21.4688 12.9875 19.0203 10.5391 16 10.5391C12.9797 10.5391 10.5312 12.9875 10.5312 16.0078C10.5312 19.0281 12.9797 21.4766 16 21.4766ZM16 20.3359C18.3904 20.3359 20.3281 18.3982 20.3281 16.0078C20.3281 13.6175 18.3904 11.6797 16 11.6797C13.6096 11.6797 11.6719 13.6175 11.6719 16.0078C11.6719 18.3982 13.6096 20.3359 16 20.3359Z" fill="url(#paint0_radial_222_681)"/>
<path fill-rule="evenodd" clip-rule="evenodd" d="M16 21.4766C19.0203 21.4766 21.4688 19.0281 21.4688 16.0078C21.4688 12.9875 19.0203 10.5391 16 10.5391C12.9797 10.5391 10.5312 12.9875 10.5312 16.0078C10.5312 19.0281 12.9797 21.4766 16 21.4766ZM16 20.3359C18.3904 20.3359 20.3281 18.3982 20.3281 16.0078C20.3281 13.6175 18.3904 11.6797 16 11.6797C13.6096 11.6797 11.6719 13.6175 11.6719 16.0078C11.6719 18.3982 13.6096 20.3359 16 20.3359Z" fill="url(#paint1_radial_222_681)"/>
<path fill-rule="evenodd" clip-rule="evenodd" d="M16 20.9453C18.7269 20.9453 20.9375 18.7347 20.9375 16.0078C20.9375 13.2809 18.7269 11.0703 16 11.0703C13.2731 11.0703 11.0625 13.2809 11.0625 16.0078C11.0625 18.7347 13.2731 20.9453 16 20.9453ZM20.3281 16.0078C20.3281 18.3982 18.3904 20.3359 16 20.3359C13.6096 20.3359 11.6719 18.3982 11.6719 16.0078C11.6719 13.6175 13.6096 11.6797 16 11.6797C18.3904 11.6797 20.3281 13.6175 20.3281 16.0078Z" fill="url(#paint2_radial_222_681)"/>
<path fill-rule="evenodd" clip-rule="evenodd" d="M16 20.9453C18.7269 20.9453 20.9375 18.7347 20.9375 16.0078C20.9375 13.2809 18.7269 11.0703 16 11.0703C13.2731 11.0703 11.0625 13.2809 11.0625 16.0078C11.0625 18.7347 13.2731 20.9453 16 20.9453ZM20.3281 16.0078C20.3281 18.3982 18.3904 20.3359 16 20.3359C13.6096 20.3359 11.6719 18.3982 11.6719 16.0078C11.6719 13.6175 13.6096 11.6797 16 11.6797C18.3904 11.6797 20.3281 13.6175 20.3281 16.0078Z" fill="url(#paint3_radial_222_681)"/>
<path fill-rule="evenodd" clip-rule="evenodd" d="M16 20.9453C18.7269 20.9453 20.9375 18.7347 20.9375 16.0078C20.9375 13.2809 18.7269 11.0703 16 11.0703C13.2731 11.0703 11.0625 13.2809 11.0625 16.0078C11.0625 18.7347 13.2731 20.9453 16 20.9453ZM20.3281 16.0078C20.3281 18.3982 18.3904 20.3359 16 20.3359C13.6096 20.3359 11.6719 18.3982 11.6719 16.0078C11.6719 13.6175 13.6096 11.6797 16 11.6797C18.3904 11.6797 20.3281 13.6175 20.3281 16.0078Z" fill="url(#paint4_radial_222_681)"/>
<defs>
<radialGradient id="paint0_radial_222_681" cx="0" cy="0" r="1" gradientUnits="userSpaceOnUse" gradientTransform="translate(20.4375 12.7813) rotate(128.71) scale(11.1432)">
<stop stop-color="#FFD200"/>
<stop offset="1" stop-color="#F4B61A"/>
</radialGradient>
<radialGradient id="paint1_radial_222_681" cx="0" cy="0" r="1" gradientUnits="userSpaceOnUse" gradientTransform="translate(11.1875 12.9687) rotate(32.5741) scale(5.34 10.7649)">
<stop stop-color="#FFEE9E"/>
<stop offset="1" stop-color="white"/>
</radialGradient>
<radialGradient id="paint2_radial_222_681" cx="0" cy="0" r="1" gradientUnits="userSpaceOnUse" gradientTransform="translate(19.5937 12.9375) rotate(136.338) scale(9.46013 9.40439)">
<stop offset="0.246219" stop-color="#FEA82A"/>
<stop offset="1" stop-color="#FFD200"/>
</radialGradient>
<radialGradient id="paint3_radial_222_681" cx="0" cy="0" r="1" gradientUnits="userSpaceOnUse" gradientTransform="translate(12.0625 19.6875) rotate(-45.5162) scale(4.90575 7.79856)">
<stop offset="0.342773" stop-color="#FFD200"/>
<stop offset="1" stop-color="#BCB6C4" stop-opacity="0"/>
</radialGradient>
<radialGradient id="paint4_radial_222_681" cx="0" cy="0" r="1" gradientUnits="userSpaceOnUse" gradientTransform="translate(12.7812 11.6563) rotate(49.2589) scale(4.16575 7.39539)">
<stop offset="0.193614" stop-color="#FFD200"/>
<stop offset="1" stop-color="#FBD36E"/>
</radialGradient>
</defs>
</svg>
