<svg width="360" height="127" viewBox="0 0 360 127" fill="none" xmlns="http://www.w3.org/2000/svg">
<path d="M-3 113V116H-0.661428C-0.653357 116.005 -0.645129 116.01 -0.63675 116.015C-0.366665 116.177 0.0597667 116.432 0.400177 116.627C1.59819 117.313 3.34684 118.219 5.84671 119.131C10.8363 120.951 18.6717 122.744 30.9375 122.999C43.3291 123.258 53.0485 120.184 62.5886 117.168L62.9668 117.048C72.6408 113.99 82.2535 111 95 111C107.484 111 118.393 113.561 130.384 116.377C131.439 116.624 132.502 116.874 133.576 117.124C146.807 120.206 161.345 123.275 180.044 123C197.403 122.744 210.262 119.789 222.804 116.907L223.567 116.732C236.322 113.803 248.861 111 266 111C279.394 111 288.522 113.873 297.403 116.845C297.8 116.978 298.197 117.111 298.594 117.244C307.124 120.107 315.743 123 327.5 123C339.508 123 347.871 121.467 353.331 119.881C356.061 119.088 358.054 118.285 359.406 117.662C359.969 117.402 360.414 117.177 360.749 117H363V114V0.5V-2.5H360H0H-3V0.5V113Z" fill="#FFFAED" stroke="#00DCEA" stroke-width="6"/>
</svg>
