<svg width="280" height="196" viewBox="0 0 280 196" fill="none" xmlns="http://www.w3.org/2000/svg">
<path d="M28.3628 51.5027C26 64.0092 28.3628 84.5092 28.3628 87.5092C28.3628 98.5092 18.0397 102.553 11.9456 110.001C1.16866 121.509 0.838444 140.009 3.16911 152.509C8.66928 182.009 52.197 181.352 71.6257 173.796C95.6692 162.509 105.169 180.509 119.669 187.009C139.169 197.009 163.169 194.009 186.016 182.025C201.703 173.796 205 159.456 227.853 159.456C244 159.456 260.696 152.172 270.016 140.31C288.32 117.014 272.5 77.5092 246.959 67.0643C231.876 60.8963 225.248 61.0092 220.846 45.7994C217 32.5092 215.5 22.9687 205.5 13.5093C187 -3.99075 160.211 1.51616 141.286 10.0321C128.817 15.6432 117.983 25.6265 103.482 19.0351C85.6688 12.5092 69.6688 11.0092 54.7605 16.5093C41.6688 22.0092 30.8794 38.1818 28.3628 51.5027Z" fill="#FFD200" stroke="black" stroke-width="4" stroke-linecap="round"/>
</svg>
